<svg width="104" height="104" viewBox="0 0 104 104" fill="none" xmlns="http://www.w3.org/2000/svg">
<g filter="url(#filter0_dd_2769_739)">
<rect x="12" y="2" width="80" height="80" rx="40" fill="#FACC15"/>
<path d="M38.1202 50.0689C38.0284 50.0689 37.9518 50.0383 37.8905 49.977C37.814 49.9158 37.791 49.8316 37.8216 49.7244C37.9135 49.4641 38.1126 49.2956 38.4188 49.2191C39.0466 49.0812 39.4907 48.9281 39.751 48.7597C40.0113 48.5759 40.218 48.2467 40.3712 47.772L43.6098 37.3442C43.7629 36.8542 43.7705 36.5173 43.6327 36.3336C43.4949 36.1345 43.1351 35.9584 42.5532 35.8053C42.4307 35.7747 42.3388 35.7211 42.2776 35.6445C42.2316 35.5527 42.2316 35.4378 42.2776 35.3C42.3082 35.1928 42.3771 35.1086 42.4843 35.0473C42.6068 34.9861 42.714 34.9555 42.8059 34.9555C43.1427 34.9555 43.5179 34.9631 43.9313 34.9784C44.3448 34.9937 44.7505 35.0167 45.1487 35.0473C45.5468 35.0627 45.899 35.0703 46.2052 35.0703C46.5115 35.0703 46.879 35.0627 47.3077 35.0473C47.7518 35.032 48.1959 35.0167 48.6399 35.0014C49.0993 34.9861 49.4898 34.9784 49.8113 34.9784C50.0563 34.9784 50.1405 35.0933 50.064 35.323C50.018 35.4761 49.9491 35.5833 49.8573 35.6445C49.7654 35.7058 49.6352 35.7594 49.4668 35.8053C49.0074 35.9278 48.6476 36.0503 48.3873 36.1728C48.1423 36.2953 47.9509 36.4484 47.813 36.6322C47.6905 36.8159 47.5834 37.0609 47.4915 37.3672L44.5974 46.7384C44.4137 47.3509 44.2988 47.8103 44.2529 48.1166C44.207 48.4228 44.2529 48.6448 44.3907 48.7827C44.5438 48.9052 44.7888 49.0123 45.1257 49.1042C45.4779 49.1961 45.6999 49.2803 45.7918 49.3569C45.899 49.4334 45.9296 49.5483 45.8837 49.7014C45.853 49.8086 45.7918 49.8928 45.6999 49.9541C45.6234 50.0153 45.5238 50.0459 45.4013 50.0459C45.0798 50.0459 44.674 50.0383 44.184 50.023C43.7093 50.0077 43.2346 49.9923 42.7599 49.977C42.3005 49.9617 41.9177 49.9541 41.6115 49.9541C41.1521 49.9541 40.5779 49.9694 39.8888 50C39.2151 50.0459 38.6255 50.0689 38.1202 50.0689ZM46.8713 50.0689C46.7795 50.0689 46.6952 50.0383 46.6187 49.977C46.5574 49.9158 46.5421 49.8316 46.5727 49.7244C46.6646 49.4641 46.8637 49.2956 47.1699 49.2191C47.7977 49.0812 48.2418 48.9281 48.5021 48.7597C48.7624 48.5759 48.9691 48.2467 49.1223 47.772L52.3609 37.3442C52.514 36.8542 52.5216 36.5173 52.3838 36.3336C52.246 36.1345 51.8862 35.9584 51.3043 35.8053C51.1818 35.7747 51.0899 35.7211 51.0287 35.6445C50.9827 35.5527 50.9827 35.4378 51.0287 35.3C51.0593 35.1928 51.1282 35.1086 51.2354 35.0473C51.3579 34.9861 51.4651 34.9555 51.557 34.9555C51.8938 34.9555 52.269 34.9631 52.6824 34.9784C53.0959 34.9937 53.5016 35.0167 53.8998 35.0473C54.2979 35.0627 54.6501 35.0703 54.9563 35.0703C55.2626 35.0703 55.6301 35.0627 56.0588 35.0473C56.5029 35.032 56.947 35.0167 57.391 35.0014C57.8504 34.9861 58.2409 34.9784 58.5624 34.9784C58.8074 34.9784 58.8916 35.0933 58.8151 35.323C58.7691 35.4761 58.7002 35.5833 58.6084 35.6445C58.5165 35.7058 58.3863 35.7594 58.2179 35.8053C57.7585 35.9278 57.3987 36.0503 57.1384 36.1728C56.8934 36.2953 56.702 36.4484 56.5641 36.6322C56.4416 36.8159 56.3345 37.0609 56.2426 37.3672L53.3485 46.7384C53.1648 47.3509 53.0499 47.8103 53.004 48.1166C52.958 48.4228 53.004 48.6448 53.1418 48.7827C53.2949 48.9052 53.5399 49.0123 53.8768 49.1042C54.229 49.1961 54.451 49.2803 54.5429 49.3569C54.6501 49.4334 54.6807 49.5483 54.6348 49.7014C54.6041 49.8086 54.5429 49.8928 54.451 49.9541C54.3745 50.0153 54.2749 50.0459 54.1524 50.0459C53.8309 50.0459 53.4251 50.0383 52.9351 50.023C52.4604 50.0077 51.9857 49.9923 51.511 49.977C51.0516 49.9617 50.6688 49.9541 50.3626 49.9541C49.9032 49.9541 49.329 49.9694 48.6399 50C47.9662 50.0459 47.3766 50.0689 46.8713 50.0689ZM55.6224 50.0689C55.5305 50.0689 55.4463 50.0383 55.3698 49.977C55.3085 49.9158 55.2932 49.8316 55.3238 49.7244C55.4157 49.4641 55.6148 49.2956 55.921 49.2191C56.5488 49.0812 56.9929 48.9281 57.2532 48.7597C57.5135 48.5759 57.7202 48.2467 57.8734 47.772L61.112 37.3442C61.2651 36.8542 61.2727 36.5173 61.1349 36.3336C60.9971 36.1345 60.6373 35.9584 60.0554 35.8053C59.9329 35.7747 59.841 35.7211 59.7798 35.6445C59.7338 35.5527 59.7338 35.4378 59.7798 35.3C59.8104 35.1928 59.8793 35.1086 59.9865 35.0473C60.109 34.9861 60.2162 34.9555 60.308 34.9555C60.6449 34.9555 61.0201 34.9631 61.4335 34.9784C61.847 34.9937 62.2527 35.0167 62.6509 35.0473C63.049 35.0627 63.4012 35.0703 63.7074 35.0703C64.0137 35.0703 64.3812 35.0627 64.8099 35.0473C65.254 35.032 65.6981 35.0167 66.1421 35.0014C66.6015 34.9861 66.992 34.9784 67.3135 34.9784C67.5585 34.9784 67.6427 35.0933 67.5662 35.323C67.5202 35.4761 67.4513 35.5833 67.3595 35.6445C67.2676 35.7058 67.1374 35.7594 66.969 35.8053C66.5096 35.9278 66.1498 36.0503 65.8895 36.1728C65.6445 36.2953 65.453 36.4484 65.3152 36.6322C65.1927 36.8159 65.0855 37.0609 64.9937 37.3672L62.0996 46.7384C61.9159 47.3509 61.801 47.8103 61.7551 48.1166C61.7091 48.4228 61.7551 48.6448 61.8929 48.7827C62.046 48.9052 62.291 49.0123 62.6279 49.1042C62.9801 49.1961 63.2021 49.2803 63.294 49.3569C63.4012 49.4334 63.4318 49.5483 63.3859 49.7014C63.3552 49.8086 63.294 49.8928 63.2021 49.9541C63.1255 50.0153 63.026 50.0459 62.9035 50.0459C62.582 50.0459 62.1762 50.0383 61.6862 50.023C61.2115 50.0077 60.7368 49.9923 60.2621 49.977C59.8027 49.9617 59.4199 49.9541 59.1137 49.9541C58.6543 49.9541 58.0801 49.9694 57.391 50C56.7173 50.0459 56.1277 50.0689 55.6224 50.0689Z" fill="black"/>
</g>
<defs>
<filter id="filter0_dd_2769_739" x="0" y="0" width="104" height="104" filterUnits="userSpaceOnUse" color-interpolation-filters="sRGB">
<feFlood flood-opacity="0" result="BackgroundImageFix"/>
<feColorMatrix in="SourceAlpha" type="matrix" values="0 0 0 0 0 0 0 0 0 0 0 0 0 0 0 0 0 0 127 0" result="hardAlpha"/>
<feMorphology radius="4" operator="erode" in="SourceAlpha" result="effect1_dropShadow_2769_739"/>
<feOffset dy="4"/>
<feGaussianBlur stdDeviation="3"/>
<feComposite in2="hardAlpha" operator="out"/>
<feColorMatrix type="matrix" values="0 0 0 0 0 0 0 0 0 0 0 0 0 0 0 0 0 0 0.1 0"/>
<feBlend mode="normal" in2="BackgroundImageFix" result="effect1_dropShadow_2769_739"/>
<feColorMatrix in="SourceAlpha" type="matrix" values="0 0 0 0 0 0 0 0 0 0 0 0 0 0 0 0 0 0 127 0" result="hardAlpha"/>
<feMorphology radius="3" operator="erode" in="SourceAlpha" result="effect2_dropShadow_2769_739"/>
<feOffset dy="10"/>
<feGaussianBlur stdDeviation="7.5"/>
<feComposite in2="hardAlpha" operator="out"/>
<feColorMatrix type="matrix" values="0 0 0 0 0 0 0 0 0 0 0 0 0 0 0 0 0 0 0.1 0"/>
<feBlend mode="normal" in2="effect1_dropShadow_2769_739" result="effect2_dropShadow_2769_739"/>
<feBlend mode="normal" in="SourceGraphic" in2="effect2_dropShadow_2769_739" result="shape"/>
</filter>
</defs>
</svg>
