<svg width="104" height="104" viewBox="0 0 104 104" fill="none" xmlns="http://www.w3.org/2000/svg">
<g filter="url(#filter0_dd_2769_736)">
<rect x="12" y="2" width="80" height="80" rx="40" fill="#FACC15"/>
<path d="M39.5842 53.09C39.4642 53.09 39.3642 53.05 39.2842 52.97C39.1842 52.89 39.1542 52.78 39.1942 52.64C39.3142 52.3 39.5742 52.08 39.9742 51.98C40.7942 51.8 41.3742 51.6 41.7142 51.38C42.0542 51.14 42.3242 50.71 42.5242 50.09L46.7542 36.47C46.9542 35.83 46.9642 35.39 46.7842 35.15C46.6042 34.89 46.1342 34.66 45.3742 34.46C45.2142 34.42 45.0942 34.35 45.0142 34.25C44.9542 34.13 44.9542 33.98 45.0142 33.8C45.0542 33.66 45.1442 33.55 45.2842 33.47C45.4442 33.39 45.5842 33.35 45.7042 33.35C46.1442 33.35 46.6342 33.36 47.1742 33.38C47.7142 33.4 48.2442 33.43 48.7642 33.47C49.2842 33.49 49.7442 33.5 50.1442 33.5C50.5442 33.5 51.0242 33.49 51.5842 33.47C52.1642 33.45 52.7442 33.43 53.3242 33.41C53.9242 33.39 54.4342 33.38 54.8542 33.38C55.1742 33.38 55.2842 33.53 55.1842 33.83C55.1242 34.03 55.0342 34.17 54.9142 34.25C54.7942 34.33 54.6242 34.4 54.4042 34.46C53.8042 34.62 53.3342 34.78 52.9942 34.94C52.6742 35.1 52.4242 35.3 52.2442 35.54C52.0842 35.78 51.9442 36.1 51.8242 36.5L48.0442 48.74C47.8042 49.54 47.6542 50.14 47.5942 50.54C47.5342 50.94 47.5942 51.23 47.7742 51.41C47.9742 51.57 48.2942 51.71 48.7342 51.83C49.1942 51.95 49.4842 52.06 49.6042 52.16C49.7442 52.26 49.7842 52.41 49.7242 52.61C49.6842 52.75 49.6042 52.86 49.4842 52.94C49.3842 53.02 49.2542 53.06 49.0942 53.06C48.6742 53.06 48.1442 53.05 47.5042 53.03C46.8842 53.01 46.2642 52.99 45.6442 52.97C45.0442 52.95 44.5442 52.94 44.1442 52.94C43.5442 52.94 42.7942 52.96 41.8942 53C41.0142 53.06 40.2442 53.09 39.5842 53.09ZM51.0142 53.09C50.8942 53.09 50.7842 53.05 50.6842 52.97C50.6042 52.89 50.5842 52.78 50.6242 52.64C50.7442 52.3 51.0042 52.08 51.4042 51.98C52.2242 51.8 52.8042 51.6 53.1442 51.38C53.4842 51.14 53.7542 50.71 53.9542 50.09L58.1842 36.47C58.3842 35.83 58.3942 35.39 58.2142 35.15C58.0342 34.89 57.5642 34.66 56.8042 34.46C56.6442 34.42 56.5242 34.35 56.4442 34.25C56.3842 34.13 56.3842 33.98 56.4442 33.8C56.4842 33.66 56.5742 33.55 56.7142 33.47C56.8742 33.39 57.0142 33.35 57.1342 33.35C57.5742 33.35 58.0642 33.36 58.6042 33.38C59.1442 33.4 59.6742 33.43 60.1942 33.47C60.7142 33.49 61.1742 33.5 61.5742 33.5C61.9742 33.5 62.4542 33.49 63.0142 33.47C63.5942 33.45 64.1742 33.43 64.7542 33.41C65.3542 33.39 65.8642 33.38 66.2842 33.38C66.6042 33.38 66.7142 33.53 66.6142 33.83C66.5542 34.03 66.4642 34.17 66.3442 34.25C66.2242 34.33 66.0542 34.4 65.8342 34.46C65.2342 34.62 64.7642 34.78 64.4242 34.94C64.1042 35.1 63.8542 35.3 63.6742 35.54C63.5142 35.78 63.3742 36.1 63.2542 36.5L59.4742 48.74C59.2342 49.54 59.0842 50.14 59.0242 50.54C58.9642 50.94 59.0242 51.23 59.2042 51.41C59.4042 51.57 59.7242 51.71 60.1642 51.83C60.6242 51.95 60.9142 52.06 61.0342 52.16C61.1742 52.26 61.2142 52.41 61.1542 52.61C61.1142 52.75 61.0342 52.86 60.9142 52.94C60.8142 53.02 60.6842 53.06 60.5242 53.06C60.1042 53.06 59.5742 53.05 58.9342 53.03C58.3142 53.01 57.6942 52.99 57.0742 52.97C56.4742 52.95 55.9742 52.94 55.5742 52.94C54.9742 52.94 54.2242 52.96 53.3242 53C52.4442 53.06 51.6742 53.09 51.0142 53.09Z" fill="black"/>
</g>
<defs>
<filter id="filter0_dd_2769_736" x="0" y="0" width="104" height="104" filterUnits="userSpaceOnUse" color-interpolation-filters="sRGB">
<feFlood flood-opacity="0" result="BackgroundImageFix"/>
<feColorMatrix in="SourceAlpha" type="matrix" values="0 0 0 0 0 0 0 0 0 0 0 0 0 0 0 0 0 0 127 0" result="hardAlpha"/>
<feMorphology radius="4" operator="erode" in="SourceAlpha" result="effect1_dropShadow_2769_736"/>
<feOffset dy="4"/>
<feGaussianBlur stdDeviation="3"/>
<feComposite in2="hardAlpha" operator="out"/>
<feColorMatrix type="matrix" values="0 0 0 0 0 0 0 0 0 0 0 0 0 0 0 0 0 0 0.1 0"/>
<feBlend mode="normal" in2="BackgroundImageFix" result="effect1_dropShadow_2769_736"/>
<feColorMatrix in="SourceAlpha" type="matrix" values="0 0 0 0 0 0 0 0 0 0 0 0 0 0 0 0 0 0 127 0" result="hardAlpha"/>
<feMorphology radius="3" operator="erode" in="SourceAlpha" result="effect2_dropShadow_2769_736"/>
<feOffset dy="10"/>
<feGaussianBlur stdDeviation="7.5"/>
<feComposite in2="hardAlpha" operator="out"/>
<feColorMatrix type="matrix" values="0 0 0 0 0 0 0 0 0 0 0 0 0 0 0 0 0 0 0.1 0"/>
<feBlend mode="normal" in2="effect1_dropShadow_2769_736" result="effect2_dropShadow_2769_736"/>
<feBlend mode="normal" in="SourceGraphic" in2="effect2_dropShadow_2769_736" result="shape"/>
</filter>
</defs>
</svg>
