<svg width="104" height="104" viewBox="0 0 104 104" fill="none" xmlns="http://www.w3.org/2000/svg">
<g filter="url(#filter0_dd_2769_742)">
<rect x="12" y="2" width="80" height="80" rx="40" fill="#FACC15"/>
<path d="M38.2845 50.0696C38.1917 50.0696 38.1143 50.0387 38.0525 49.9768C37.9751 49.9149 37.9519 49.8298 37.9829 49.7216C38.0757 49.4586 38.2768 49.2884 38.5861 49.2111C39.2204 49.0719 39.669 48.9172 39.9319 48.747C40.1949 48.5614 40.4037 48.2288 40.5584 47.7493L43.8301 37.2151C43.9847 36.7201 43.9925 36.3798 43.8533 36.1941C43.714 35.993 43.3505 35.8152 42.7627 35.6605C42.639 35.6295 42.5461 35.5754 42.4843 35.498C42.4379 35.4052 42.4379 35.2892 42.4843 35.15C42.5152 35.0417 42.5848 34.9566 42.6931 34.8948C42.8168 34.8329 42.9251 34.802 43.0179 34.802C43.3583 34.802 43.7372 34.8097 44.1549 34.8252C44.5726 34.8406 44.9825 34.8638 45.3847 34.8948C45.7869 34.9102 46.1426 34.918 46.452 34.918C46.7614 34.918 47.1326 34.9102 47.5658 34.8948C48.0144 34.8793 48.4629 34.8638 48.9115 34.8484C49.3756 34.8329 49.7701 34.8252 50.0949 34.8252C50.3424 34.8252 50.4275 34.9412 50.3501 35.1732C50.3037 35.3279 50.2341 35.4362 50.1413 35.498C50.0485 35.5599 49.917 35.6141 49.7469 35.6605C49.2828 35.7842 48.9193 35.908 48.6563 36.0317C48.4088 36.1555 48.2154 36.3102 48.0762 36.4958C47.9525 36.6814 47.8442 36.9289 47.7514 37.2383L44.8278 46.7052C44.6422 47.3239 44.5261 47.788 44.4797 48.0973C44.4333 48.4067 44.4797 48.631 44.619 48.7702C44.7736 48.894 45.0211 49.0023 45.3615 49.0951C45.7172 49.1879 45.9415 49.273 46.0344 49.3503C46.1426 49.4277 46.1736 49.5437 46.1272 49.6984C46.0962 49.8066 46.0343 49.8917 45.9415 49.9536C45.8642 50.0155 45.7636 50.0464 45.6399 50.0464C45.3151 50.0464 44.9051 50.0387 44.4101 50.0232C43.9306 50.0077 43.4511 49.9923 42.9715 49.9768C42.5075 49.9613 42.1208 49.9536 41.8114 49.9536C41.3473 49.9536 40.7672 49.9691 40.0711 50C39.3905 50.0464 38.795 50.0696 38.2845 50.0696ZM52.1136 50.4177C51.5412 50.4177 51.2164 50.116 51.139 49.5127C51.0617 48.9095 51.1236 48.1283 51.3247 47.1692C51.6804 45.4212 51.9898 43.7352 52.2528 42.1109C52.5158 40.4712 52.7401 38.8161 52.9257 37.1455C52.9721 36.7278 52.9179 36.4184 52.7633 36.2173C52.624 36.0008 52.392 35.8384 52.0672 35.7301C51.8197 35.6373 51.6108 35.5677 51.4407 35.5212C51.286 35.4594 51.2086 35.3511 51.2086 35.1964C51.2086 35.0727 51.2783 34.9798 51.4175 34.918C51.5567 34.8561 51.7501 34.8252 51.9976 34.8252C52.4926 34.8252 53.0649 34.8406 53.7146 34.8716C54.3643 34.9025 54.9134 34.918 55.362 34.918C55.6714 34.918 56.0504 34.9102 56.499 34.8948C56.9476 34.8638 57.3961 34.8406 57.8447 34.8252C58.3088 34.8097 58.711 34.802 59.0513 34.802C59.1751 34.802 59.2988 34.8329 59.4226 34.8948C59.5463 34.9566 59.5927 35.0417 59.5618 35.15C59.5154 35.2892 59.4071 35.4052 59.2369 35.498C59.0668 35.5754 58.9044 35.6295 58.7497 35.6605C58.1928 35.7842 57.7983 35.9389 57.5663 36.1245C57.3497 36.2947 57.1951 36.6273 57.1022 37.1223L55.4548 45.9162C55.4394 45.9781 55.4316 46.0245 55.4316 46.0555C55.4471 46.0709 55.4703 46.0787 55.5012 46.0787C55.5322 46.0787 55.5554 46.0632 55.5708 46.0323C55.5863 46.0013 55.625 45.9549 55.6868 45.893L61.302 39.2337C61.9826 38.4294 62.4158 37.7874 62.6014 37.3079C62.8025 36.8284 62.8257 36.4648 62.671 36.2173C62.5318 35.9698 62.2765 35.7842 61.9053 35.6605C61.7661 35.6141 61.6269 35.5522 61.4876 35.4748C61.3639 35.3975 61.3252 35.2892 61.3716 35.15C61.4026 35.0417 61.5031 34.9644 61.6733 34.918C61.8434 34.8561 62.0058 34.8252 62.1605 34.8252C62.671 34.8252 63.0886 34.8406 63.4135 34.8716C63.7538 34.887 64.156 34.8948 64.6201 34.8948C65.0686 34.8948 65.4863 34.8716 65.873 34.8252C66.2597 34.7787 66.6929 34.7555 67.1724 34.7555C67.3426 34.7555 67.505 34.7865 67.6597 34.8484C67.8144 34.9102 67.8917 35.003 67.8917 35.1268C67.8917 35.2815 67.7834 35.3898 67.5669 35.4516C67.3503 35.5135 67.1647 35.5677 67.01 35.6141C66.515 35.7378 66.0432 35.9698 65.5946 36.3102C65.146 36.635 64.7206 37.0217 64.3184 37.4703L55.9885 46.8444C55.7101 47.1692 55.3775 47.5327 54.9908 47.9349C54.6195 48.3371 54.2405 48.7316 53.8538 49.1183C53.4671 49.4895 53.119 49.7989 52.8097 50.0464C52.5003 50.2939 52.2683 50.4177 52.1136 50.4177Z" fill="black"/>
</g>
<defs>
<filter id="filter0_dd_2769_742" x="0" y="0" width="104" height="104" filterUnits="userSpaceOnUse" color-interpolation-filters="sRGB">
<feFlood flood-opacity="0" result="BackgroundImageFix"/>
<feColorMatrix in="SourceAlpha" type="matrix" values="0 0 0 0 0 0 0 0 0 0 0 0 0 0 0 0 0 0 127 0" result="hardAlpha"/>
<feMorphology radius="4" operator="erode" in="SourceAlpha" result="effect1_dropShadow_2769_742"/>
<feOffset dy="4"/>
<feGaussianBlur stdDeviation="3"/>
<feComposite in2="hardAlpha" operator="out"/>
<feColorMatrix type="matrix" values="0 0 0 0 0 0 0 0 0 0 0 0 0 0 0 0 0 0 0.1 0"/>
<feBlend mode="normal" in2="BackgroundImageFix" result="effect1_dropShadow_2769_742"/>
<feColorMatrix in="SourceAlpha" type="matrix" values="0 0 0 0 0 0 0 0 0 0 0 0 0 0 0 0 0 0 127 0" result="hardAlpha"/>
<feMorphology radius="3" operator="erode" in="SourceAlpha" result="effect2_dropShadow_2769_742"/>
<feOffset dy="10"/>
<feGaussianBlur stdDeviation="7.5"/>
<feComposite in2="hardAlpha" operator="out"/>
<feColorMatrix type="matrix" values="0 0 0 0 0 0 0 0 0 0 0 0 0 0 0 0 0 0 0.1 0"/>
<feBlend mode="normal" in2="effect1_dropShadow_2769_742" result="effect2_dropShadow_2769_742"/>
<feBlend mode="normal" in="SourceGraphic" in2="effect2_dropShadow_2769_742" result="shape"/>
</filter>
</defs>
</svg>
