<?xml version="1.0" encoding="UTF-8"?> <svg xmlns="http://www.w3.org/2000/svg" xmlns:xlink="http://www.w3.org/1999/xlink" width="1209px" height="117px" viewBox="0 0 1209 117"> <!-- Generator: Sketch 43.2 (39069) - http://www.bohemiancoding.com/sketch --> <title>p2pf-logo-title</title> <desc>Created with Sketch.</desc> <defs></defs> <g id="Page-1" stroke="none" stroke-width="1" fill="none" fill-rule="evenodd"> <g id="p2pf-logo-title" fill="#1D1E1C"> <path d="M60.0871148,39.0201549 C60.0871148,30.6532843 55.7423006,26.3084702 48.339565,25.658817 C46.2457784,25.5015761 43.6719932,25.5015761 40.6140717,25.5015761 L29.3465204,25.5015761 L29.3465204,52.5428716 L40.6140717,52.5428716 C43.6719932,52.5428716 46.2457784,52.5428716 48.339565,52.3814928 C55.7423006,51.7359775 60.0871148,47.3870255 60.0871148,39.0201549 M90.3435727,39.0201549 C90.3435727,60.9097422 75.6994801,72.3386723 59.6071162,74.2669422 C53.648514,74.9124574 49.1423211,75.0738362 42.2278598,75.0738362 L29.3465204,75.0738362 L29.3465204,114.019922 L0.376955047,114.019922 L0.376955047,2.97061148 L42.2278598,2.97061148 C49.1423211,2.97061148 53.648514,3.12785237 59.6071162,3.77336761 C75.6994801,5.70577541 90.3435727,17.1305676 90.3435727,39.0201549" id="Fill-6"></path> <path d="M183.375974,91.4877164 L183.375974,114.018681 L97.270034,114.018681 L97.270034,101.464237 L132.198202,68.6339941 C148.774702,53.0216287 154.406409,45.2961354 154.406409,34.6782373 C154.406409,26.3072288 149.738837,21.639657 141.851965,21.639657 C133.480956,21.639657 129.301659,26.9486061 128.172007,38.538915 L128.010628,40.1485652 L99.0410629,40.1485652 L99.2024418,38.538915 C101.614848,14.0755426 117.069973,0.391447062 144.268509,0.391447062 C170.180153,0.391447062 184.667004,12.7845121 184.667004,33.5485856 C184.667004,46.583028 178.708402,56.5636867 157.302951,77.1622435 L142.49748,91.4877164 L183.375974,91.4877164 Z" id="Fill-8"></path> <path d="M257.414089,39.0201549 C257.414089,30.6532843 253.069275,26.3084702 245.666539,25.658817 C243.572753,25.5015761 240.998968,25.5015761 237.941046,25.5015761 L226.673495,25.5015761 L226.673495,52.5428716 L237.941046,52.5428716 C240.998968,52.5428716 243.572753,52.5428716 245.666539,52.3814928 C253.069275,51.7359775 257.414089,47.3870255 257.414089,39.0201549 M287.670547,39.0201549 C287.670547,60.9097422 273.026455,72.3386723 256.934091,74.2669422 C250.975488,74.9124574 246.469296,75.0738362 239.554834,75.0738362 L226.673495,75.0738362 L226.673495,114.019922 L197.703929,114.019922 L197.703929,2.97061148 L239.554834,2.97061148 C246.469296,2.97061148 250.975488,3.12785237 256.934091,3.77336761 C273.026455,5.70577541 287.670547,17.1305676 287.670547,39.0201549" id="Fill-9"></path> <path d="M400.802472,27.6003282 C400.802472,40.3658059 390.561125,50.7147393 377.923922,50.7147393 C365.290858,50.7147393 355.041235,40.3658059 355.041235,27.6003282 C355.041235,14.8389885 365.290858,4.49005504 377.923922,4.49005504 C390.561125,4.49005504 400.802472,14.8389885 400.802472,27.6003282" id="Fill-10"></path> <path d="M369.986568,90.5782019 C369.986568,103.34368 359.741082,113.688475 347.108018,113.688475 C334.466678,113.688475 324.221192,103.34368 324.221192,90.5782019 C324.221192,77.8127243 334.466678,67.4637908 347.108018,67.4637908 C359.741082,67.4637908 369.986568,77.8127243 369.986568,90.5782019" id="Fill-11"></path> <polygon id="Fill-12" points="447.948257 55.5234141 497.67362 55.5234141 497.67362 66.2985531 447.948257 66.2985531 447.948257 114.021164 434.711057 114.021164 434.711057 7.80494132 503.826705 7.80494132 503.826705 18.5800803 447.948257 18.5800803"></polygon> <path d="M574.647588,73.2266695 C574.647588,53.9853499 565.105549,40.4378057 548.632497,40.4378057 C532.159444,40.4378057 522.621543,53.9853499 522.621543,73.2266695 C522.621543,92.3148862 532.159444,106.015533 548.632497,106.015533 C565.105549,106.015533 574.647588,92.3148862 574.647588,73.2266695 M589.117888,73.2266695 C589.117888,96.1631501 576.339997,116.174123 548.632497,116.174123 C520.929134,116.174123 508.151243,96.1631501 508.151243,73.2266695 C508.151243,50.1370859 520.929134,30.2792165 548.632497,30.2792165 C576.339997,30.2792165 589.117888,50.1370859 589.117888,73.2266695" id="Fill-13"></path> <path d="M672.870594,114.019922 L659.633394,114.019922 L659.633394,100.166172 L654.55203,109.708212 C647.625155,114.789575 641.621036,116.175778 633.307958,116.175778 C616.379735,116.175778 606.527352,106.633738 604.68184,95.3951525 C604.061152,91.2365447 603.908049,88.0048306 603.908049,81.3841615 L603.908049,32.4325891 L617.14525,32.4325891 L617.14525,78.9262381 C617.14525,81.5372644 617.298353,86.0020782 617.765937,90.1565481 C618.990761,99.3965194 625.61143,105.706845 636.696913,105.706845 C649.474805,105.706845 659.633394,96.1648053 659.633394,68.3000641 L659.633394,32.4325891 L672.870594,32.4325891 L672.870594,114.019922 Z" id="Fill-14"></path> <path d="M765.246722,68.1469611 L765.246722,114.019922 L752.009521,114.019922 L752.009521,69.0738548 C752.009521,64.915247 752.009521,61.526292 751.703315,57.3718221 C750.929525,47.8297827 745.695058,40.7456668 733.074408,40.7456668 C720.300654,40.7456668 709.521377,50.2918441 709.521377,78.1524474 L709.521377,114.019922 L696.284177,114.019922 L696.284177,32.4325891 L709.521377,32.4325891 L709.521377,46.4435801 L714.602741,37.0505058 C721.529616,31.6670742 727.533735,30.2808716 735.846813,30.2808716 C753.70193,30.2808716 763.707416,39.822911 764.940516,54.140108 C765.246722,58.2945779 765.246722,61.526292 765.246722,68.1469611" id="Fill-15"></path> <path d="M845.608817,73.9983913 L845.608817,69.5335775 C845.608817,48.4426084 832.371617,40.4398746 820.673722,40.4398746 C806.356525,40.4398746 795.27518,51.5212196 795.27518,72.9183946 C795.27518,91.3900615 803.588258,106.013464 819.904069,106.013464 C833.451614,106.013464 845.608817,97.3941808 845.608817,73.9983913 L845.608817,73.9983913 Z M858.846018,114.020336 L845.608817,114.020336 L845.608817,100.936239 L839.455733,109.708625 C834.833678,113.561027 826.214395,116.172054 817.901317,116.172054 C794.042081,116.172054 780.80488,98.3169366 780.80488,74.4577002 C780.80488,44.2881386 799.582753,30.2812854 820.673722,30.2812854 C827.443356,30.2812854 836.06264,32.2798999 840.221248,35.664717 L845.608817,43.6715887 L845.608817,0.87723866 L858.846018,0.87723866 L858.846018,114.020336 Z" id="Fill-16"></path> <path d="M927.514356,83.0782252 L927.514356,74.7651475 C905.041323,73.072739 890.877229,77.8437587 890.877229,91.8506118 C890.877229,101.702995 897.191692,106.014706 907.197178,106.014706 C919.511623,106.014706 927.514356,97.8547311 927.514356,83.0782252 L927.514356,83.0782252 Z M927.671597,102.319545 L923.206784,111.096069 C917.661973,114.944333 910.581995,116.173295 902.732364,116.173295 C887.95172,116.173295 876.406929,108.01332 876.406929,92.9306084 C876.406929,74.4589416 890.264817,64.9127643 922.27989,64.9127643 L927.514356,64.9127643 L927.514356,62.7610468 C927.514356,59.2189888 927.514356,55.9872747 927.20815,52.9086635 C926.591601,45.3652387 922.27989,40.4369781 911.355786,40.4369781 C900.270303,40.4369781 894.72963,46.4410974 893.806875,57.6796832 L879.953125,57.6796832 C881.182086,40.2838751 893.343428,30.2783889 911.355786,30.2783889 C930.746071,30.2783889 938.906045,38.4383636 940.292248,51.8286669 C940.598454,55.060381 940.755695,59.0658858 940.755695,62.6079438 L940.755695,93.2368144 C940.755695,99.3940367 941.061901,104.934709 942.295,114.021578 L929.053662,114.021578 L927.671597,102.319545 Z" id="Fill-17"></path> <path d="M979.864815,90.1582032 C979.864815,92.9306084 979.864815,94.316811 980.017918,96.4685285 C980.634468,104.322297 983.866182,106.014706 994.177874,104.781606 L994.177874,114.480886 C990.32961,115.097436 986.638587,115.250539 982.939288,115.250539 C972.780699,115.250539 967.546232,111.096069 966.780717,100.933342 C966.627614,98.7816248 966.627614,95.3968077 966.627614,90.774753 L966.627614,43.2093833 L955.695235,43.2093833 L955.695235,33.0507941 L966.627614,33.0507941 L966.627614,14.1156804 L979.864815,14.1156804 L979.864815,33.0507941 L995.104768,33.0507941 L995.104768,43.2093833 L979.864815,43.2093833 L979.864815,90.1582032 Z" id="Fill-18"></path> <path d="M1012.19685,32.4330029 L1025.43405,32.4330029 L1025.43405,114.020336 L1012.19685,114.020336 L1012.19685,32.4330029 Z M1027.27956,14.114439 C1027.27956,18.8895966 1023.58854,22.5806196 1018.81338,22.5806196 C1014.04236,22.5806196 1010.35134,18.8895966 1010.35134,14.114439 C1010.35134,9.34341931 1014.04236,5.64825835 1018.81338,5.64825835 C1023.58854,5.64825835 1027.27956,9.34341931 1027.27956,14.114439 L1027.27956,14.114439 Z" id="Fill-19"></path> <path d="M1108.56028,73.2266695 C1108.56028,53.9853499 1099.01824,40.4378057 1082.54519,40.4378057 C1066.07213,40.4378057 1056.53423,53.9853499 1056.53423,73.2266695 C1056.53423,92.3148862 1066.07213,106.015533 1082.54519,106.015533 C1099.01824,106.015533 1108.56028,92.3148862 1108.56028,73.2266695 M1123.03058,73.2266695 C1123.03058,96.1631501 1110.25269,116.174123 1082.54519,116.174123 C1054.84182,116.174123 1042.06393,96.1631501 1042.06393,73.2266695 C1042.06393,50.1370859 1054.84182,30.2792165 1082.54519,30.2792165 C1110.25269,30.2792165 1123.03058,50.1370859 1123.03058,73.2266695" id="Fill-20"></path> <path d="M1208.01597,68.1469611 L1208.01597,114.019922 L1194.77877,114.019922 L1194.77877,69.0738548 C1194.77877,64.915247 1194.77877,61.526292 1194.47256,57.3718221 C1193.69877,47.8297827 1188.46431,40.7456668 1175.84366,40.7456668 C1163.0699,40.7456668 1152.29063,50.2918441 1152.29063,78.1524474 L1152.29063,114.019922 L1139.05342,114.019922 L1139.05342,32.4325891 L1152.29063,32.4325891 L1152.29063,46.4435801 L1157.37199,37.0505058 C1164.29886,31.6670742 1170.30298,30.2808716 1178.61606,30.2808716 C1196.47118,30.2808716 1206.47666,39.822911 1207.70976,54.140108 C1208.01597,58.2945779 1208.01597,61.526292 1208.01597,68.1469611" id="Fill-21"></path> </g> </g> </svg> 